<svg xmlns:svg="http://www.w3.org/2000/svg" xmlns="http://www.w3.org/2000/svg" width="128" height="128" version="1.1"><style>.s0{stroke-width:1;stroke:#000;}.s1{fill:none;stroke-linecap:round;stroke-width:1;stroke:#000;}.s2{stop-color:#000000;stop-opacity:0;}</style><defs><marker orient="auto" refY="0" refX="0"><path d="M-2.5-1C-2.5 1.8-4.7 4-7.5 4 -10.3 4-12.5 1.8-12.5-1 -12.5-3.8-10.3-6-7.5-6 -4.7-6-2.5-3.8-2.5-1z" transform="scale(0.4) translate(7.4, 1)" class="s0"/></marker><marker orient="auto" refY="0" refX="0"><g transform="scale(-1.2)"><path d="M-3.8-4L0.5 0M-1.3-4L3.1 0M1.3-4L5.7 0M-3.8 4.2L0.5 0.2M-1.3 4.2L3.1 0.2M1.3 4.2L5.7 0.2" class="s1"/></g></marker><marker orient="auto" refY="0" refX="0"><path d="M0 0L5-5 -12.5 0 5 5 0 0z" transform="scale(0.8) translate(12.5,0)" class="s0"/></marker><linearGradient><stop offset="0" style="stop-color:#000000;stop-opacity:1"/><stop offset="1" class="s2"/></linearGradient><linearGradient><stop offset="0" style="stop-color:#ffff00;stop-opacity:1"/><stop offset="1" class="s2"/></linearGradient><linearGradient><stop offset="0" class="s2"/></linearGradient></defs><g transform="translate(0,64)"><path d="m59.8 33.8c0 15.2-12.3 27.5-27.5 27.5-15.2 0-27.5-12.3-27.5-27.5 0-15.2 12.3-27.5 27.5-27.5 15.2 0 27.5 12.3 27.5 27.5z" transform="matrix(2.1073228,0,0,2.1073228,-4.2006284,-71.265823)" style="fill:#f0f0f0;stroke:#dcdcdc"/><path d="m55.9 29.9c0 14.3-11.6 25.8-25.8 25.8-14.3 0-25.8-11.6-25.8-25.8 0-14.3 11.6-25.8 25.8-25.8 14.3 0 25.8 11.6 25.8 25.8z" transform="matrix(2.0607307,0,0,2.0607307,2.0046081,-61.678308)" style="fill:#000;stroke-width:0;stroke:#969696"/><path d="m55.3 29.4a26.3 26.3 0 1 1-52.6 0 26.3 26.3 0 1 1 52.6 0z" transform="matrix(1.1903197,0,0,1.1903197,29.490991,-35.010324)" style="fill:none;stroke-linecap:round;stroke-width:8;stroke:#ff4343"/><rect width="15" height="49.7" x="56.5" y="-49.2" ry="0" transform="matrix(2.3824727,0,0,0.74928958,-88.478253,-10.288699)" fill="#000"/><rect width="10.5" height="34.4" x="58.7" y="-42.5" ry="0" fill="#ff4343"/></g></svg>